
<svg xmlns="http://www.w3.org/2000/svg" fill="none" viewBox="0 0 104 106" preserveAspectRatio="none">
    <path fill="currentColor" d="M23.234.281C26.164.377 29.086.92 32 1.906c2.708.918 5.406 1.286 8.094 1.102a37.021 37.021 0 0 0 8.258-1.54c2.953-.897 5.921-1.176 8.89-.82 2.766.332 5.532.416 8.297.243a35.55 35.55 0 0 1 8.727.53c2.795.519 5.589.902 8.382 1.15 2.787.246 5.574.321 8.36.226 2.876-.099 5.479.04 7.797.422 1.336.22 2.431.834 3.164 1.89.713 1.03 1.006 2.37.992 3.899a76.53 76.53 0 0 1-.57 8.594c-.345 2.81-.618 5.62-.829 8.43a28.429 28.429 0 0 0 .579 8.195 138.837 138.837 0 0 1 1.578 8.539c.457 3.003.128 6.007-.977 8.984-.977 2.636-1.103 5.25-.383 7.867.81 2.947 1.042 5.902.688 8.86-.33 2.75-.337 5.5-.024 8.25.326 2.85.549 5.703.665 8.554a44.762 44.762 0 0 1-.5 8.672c-.45 2.903-1.206 5.501-2.274 7.781-.591 1.262-1.466 2.238-2.633 2.875-1.156.632-2.53.894-4.07.852a39.24 39.24 0 0 1-8.703-1.234 19.385 19.385 0 0 0-8.063-.368 31.246 31.246 0 0 1-8.757.219 157.65 157.65 0 0 1-8.54-1.234 20.424 20.424 0 0 0-8.086.218c-2.946.67-5.9.783-8.851.336a45.063 45.063 0 0 0-8.297-.484 42.84 42.84 0 0 0-8.289 1.109 68.59 68.59 0 0 1-8.602 1.454 51.735 51.735 0 0 1-8.648.164c-3.12-.203-5.41-1.571-6.602-4.18-1.067-2.337-1.705-4.981-1.93-7.906a32.14 32.14 0 0 1 .532-8.75c.538-2.713.595-5.423.172-8.133a27.163 27.163 0 0 1 .062-8.797c.453-2.662.25-5.329-.617-8.008-.967-2.99-1.126-5.996-.469-9 .599-2.731.783-5.462.555-8.187a361.876 361.876 0 0 0-.805-8.453 44.965 44.965 0 0 1-.093-8.672c.245-2.85.597-5.699 1.047-8.547.43-2.732.468-5.465.109-8.195a87.606 87.606 0 0 1-.399-3.407c-.037-.42-.06-.779-.07-1.07a4.288 4.288 0 0 1 .031-.774l.157-.437c.216-.366.578-.552.797-.633.329-.121.727-.172 1.125-.195.812-.047 1.95.022 3.375.18 2.676.296 5.358.006 8.054-.883C17.338.627 20.284.186 23.234.28Zm-.07 2c-2.702-.087-5.413.314-8.133 1.211-2.955.974-5.924 1.298-8.898.969-1.4-.155-2.407-.201-3.047-.164-.084.005-.156.017-.219.023.01.234.03.54.063.914.071.806.198 1.908.382 3.313.385 2.92.352 5.846-.109 8.765-.442 2.804-.79 5.611-1.031 8.415a42.988 42.988 0 0 0 .094 8.289c.303 2.833.568 5.666.804 8.5a29.41 29.41 0 0 1-.593 8.78c-.58 2.648-.44 5.293.421 7.954.963 2.974 1.189 5.97.68 8.96a25.174 25.174 0 0 0-.055 8.157c.46 2.943.396 5.888-.187 8.828a30.158 30.158 0 0 0-.5 8.211c.21 2.727.803 5.128 1.758 7.219.83 1.818 2.382 2.851 4.914 3.016 2.77.18 5.542.129 8.312-.157a66.388 66.388 0 0 0 8.352-1.406 44.83 44.83 0 0 1 8.672-1.164 47.013 47.013 0 0 1 8.664.508 21.65 21.65 0 0 0 8.11-.313 22.457 22.457 0 0 1 8.874-.242c2.808.485 5.615.892 8.422 1.219 2.733.319 5.468.257 8.203-.195 2.966-.491 5.932-.353 8.89.406a37.23 37.23 0 0 0 8.259 1.172c1.284.035 2.287-.191 3.054-.61.757-.413 1.36-1.059 1.79-1.976.972-2.078 1.675-4.487 2.101-7.235.428-2.763.588-5.527.477-8.289a115.425 115.425 0 0 0-.649-8.406 37.433 37.433 0 0 1 .023-8.71c.323-2.694.111-5.39-.632-8.095-.835-3.034-.682-6.077.437-9.093.993-2.677 1.279-5.335.875-7.985a136.74 136.74 0 0 0-1.554-8.422 30.396 30.396 0 0 1-.626-8.765c.214-2.841.496-5.683.844-8.524.343-2.789.529-5.579.555-8.367.012-1.296-.24-2.174-.633-2.742-.373-.538-.95-.906-1.851-1.055-2.16-.356-4.624-.493-7.399-.398-2.868.098-5.742.019-8.61-.234a90.951 90.951 0 0 1-8.57-1.172 33.535 33.535 0 0 0-8.234-.508c-2.888.18-5.777.096-8.664-.25-2.683-.322-5.372-.07-8.07.75A39.016 39.016 0 0 1 40.227 5c-2.965.203-5.924-.198-8.868-1.195-2.738-.929-5.472-1.435-8.195-1.524Z"/>
</svg>